<svg width="29" height="29" viewBox="0 0 29 29" fill="none" xmlns="http://www.w3.org/2000/svg">
<path d="M6.971 26.9318H5.971C4.878 26.9318 3.912 26.4978 3.252 25.7118C2.592 24.9248 2.323 23.8478 2.516 22.7578C2.894 20.6118 4.876 18.9318 7.03 18.9318H9.548V5.80283C9.5502 5.04222 9.84029 4.31064 10.3599 3.7552C10.8796 3.19976 11.5902 2.86164 12.349 2.80883L23.349 2.07583C23.7586 2.04996 24.1692 2.10782 24.5557 2.24588C24.9422 2.38394 25.2965 2.5993 25.597 2.87883C26.201 3.44383 26.548 4.24283 26.548 5.06983L26.538 19.4388C26.537 19.6588 26.526 19.8768 26.485 20.1068C26.107 22.2518 24.125 23.9318 21.971 23.9318H20.971C19.878 23.9318 18.912 23.4978 18.252 22.7118C17.592 21.9248 17.323 20.8478 17.516 19.7578C17.894 17.6118 19.876 15.9318 22.03 15.9318H24.548V11.0698C24.548 10.7898 24.436 10.5298 24.231 10.3388C24.1316 10.2447 24.0136 10.1724 23.8846 10.1264C23.7557 10.0804 23.6185 10.0618 23.482 10.0718L12.482 10.8048C12.2291 10.8225 11.9922 10.9352 11.8189 11.1203C11.6457 11.3055 11.5489 11.5493 11.548 11.8028V22.4318C11.548 22.5208 11.536 22.6068 11.515 22.6888C11.506 22.9938 11.495 23.0498 11.486 23.1068C11.106 25.2508 9.124 26.9318 6.971 26.9318ZM7.029 20.9318C5.857 20.9318 4.692 21.9268 4.484 23.1058C4.394 23.6198 4.501 24.0878 4.784 24.4268C5.057 24.7518 5.479 24.9318 5.971 24.9318H6.971C8.143 24.9318 9.308 23.9368 9.516 22.7578C9.513 22.7558 9.527 22.4648 9.536 20.9318H7.029ZM22.029 17.9318C20.857 17.9318 19.692 18.9268 19.484 20.1058C19.394 20.6198 19.501 21.0878 19.784 21.4268C20.057 21.7518 20.479 21.9318 20.971 21.9318H21.971C23.143 21.9318 24.308 20.9368 24.516 19.7578C24.536 19.6448 24.537 19.5348 24.537 19.4278L24.544 17.9318H22.029ZM12.48 4.80483C12.2271 4.82251 11.9902 4.93523 11.8169 5.12035C11.6437 5.30547 11.5469 5.54929 11.546 5.80283V8.97483C11.799 8.88483 12.067 8.82783 12.347 8.80883L23.347 8.07583C23.755 8.05283 24.164 8.10683 24.546 8.24183V5.06883C24.546 4.78883 24.434 4.52883 24.229 4.33783C24.1294 4.24392 24.0114 4.1717 23.8825 4.12574C23.7536 4.07978 23.6165 4.06109 23.48 4.07083L12.48 4.80483Z" fill="#A000A3"/>
</svg>
