<svg width="32" height="33" viewBox="0 0 32 33" fill="none" xmlns="http://www.w3.org/2000/svg">
<g clip-path="url(#clip0_131_450)">
<path d="M25.3333 6.66943H22.6667C21.196 6.66943 20 7.86543 20 9.3361V13.3361H12V9.3361C12 7.86543 10.804 6.66943 9.33333 6.66943H6.66667C5.196 6.66943 4 7.86543 4 9.3361V20.0028C4 21.4734 5.196 22.6694 6.66667 22.6694H9.33333C10.804 22.6694 12 21.4734 12 20.0028V16.0028H20V20.0028C20 21.4734 21.196 22.6694 22.6667 22.6694H25.3333C26.804 22.6694 28 21.4734 28 20.0028V9.3361C28 7.86543 26.804 6.66943 25.3333 6.66943ZM6.66667 20.0028V9.3361H9.33333L9.33467 20.0028H6.66667ZM22.6667 20.0028V9.3361H25.3333L25.3347 20.0028H22.6667ZM29.3333 12.0028H32V17.3361H29.3333V12.0028ZM0 12.0028H2.66667V17.3361H0V12.0028Z" fill="#00A32F"/>
</g>
<defs>
<clipPath id="clip0_131_450">
<rect width="32" height="32.0027" fill="white"/>
</clipPath>
</defs>
</svg>
