<svg width="12" height="13" viewBox="0 0 12 13" fill="none" xmlns="http://www.w3.org/2000/svg">
<path d="M10.6667 4.16655L7.16672 1.09821C6.84587 0.811241 6.43051 0.652588 6.00005 0.652588C5.56959 0.652588 5.15423 0.811241 4.83339 1.09821L1.33339 4.16655C1.1481 4.33226 1.00025 4.53554 0.899664 4.76286C0.799081 4.99018 0.748079 5.23631 0.750055 5.48488V10.5832C0.750055 11.0473 0.93443 11.4925 1.26262 11.8207C1.59081 12.1488 2.03593 12.3332 2.50006 12.3332H9.50005C9.96418 12.3332 10.4093 12.1488 10.7375 11.8207C11.0657 11.4925 11.2501 11.0473 11.2501 10.5832V5.47905C11.2512 5.23146 11.1998 4.98645 11.0992 4.7602C10.9987 4.53394 10.8513 4.33161 10.6667 4.16655ZM7.16672 11.1665H4.83339V8.24988C4.83339 8.09517 4.89485 7.9468 5.00424 7.8374C5.11364 7.72801 5.26201 7.66655 5.41672 7.66655H6.58339C6.7381 7.66655 6.88647 7.72801 6.99587 7.8374C7.10526 7.9468 7.16672 8.09517 7.16672 8.24988V11.1665ZM10.0834 10.5832C10.0834 10.7379 10.0219 10.8863 9.91253 10.9957C9.80314 11.1051 9.65476 11.1665 9.50005 11.1665H8.33339V8.24988C8.33339 7.78575 8.14901 7.34063 7.82082 7.01244C7.49264 6.68426 7.04752 6.49988 6.58339 6.49988H5.41672C4.95259 6.49988 4.50747 6.68426 4.17928 7.01244C3.8511 7.34063 3.66672 7.78575 3.66672 8.24988V11.1665H2.50006C2.34535 11.1665 2.19697 11.1051 2.08758 10.9957C1.97818 10.8863 1.91672 10.7379 1.91672 10.5832V5.47905C1.91683 5.39622 1.93457 5.31437 1.96877 5.23894C2.00296 5.1635 2.05283 5.09621 2.11506 5.04155L5.61505 1.97905C5.72151 1.88553 5.85836 1.83395 6.00005 1.83395C6.14175 1.83395 6.2786 1.88553 6.38505 1.97905L9.88505 5.04155C9.94728 5.09621 9.99715 5.1635 10.0313 5.23894C10.0655 5.31437 10.0833 5.39622 10.0834 5.47905V10.5832Z" fill="#A30000"/>
</svg>
