<svg width="13" height="10" viewBox="0 0 13 10" fill="none" xmlns="http://www.w3.org/2000/svg">
<path d="M12.5357 3.44413L11.9523 3.1233L6.70235 0.206631H6.63818C6.60242 0.19151 6.56531 0.179792 6.52735 0.171631H6.41651H6.31151C6.27166 0.179797 6.23262 0.19151 6.19485 0.206631H6.13068L0.880681 3.1233C0.790907 3.17418 0.716236 3.24795 0.664284 3.33711C0.612333 3.42627 0.584961 3.52761 0.584961 3.6308C0.584961 3.73399 0.612333 3.83533 0.664284 3.92448C0.716236 4.01364 0.790907 4.08742 0.880681 4.1383L2.33318 4.9433V7.7083C2.33318 8.17243 2.51756 8.61755 2.84574 8.94573C3.17393 9.27392 3.61905 9.4583 4.08318 9.4583H8.74985C9.21398 9.4583 9.6591 9.27392 9.98729 8.94573C10.3155 8.61755 10.4998 8.17243 10.4998 7.7083V4.9433L11.6665 4.28996V5.9583C11.6665 6.11301 11.728 6.26138 11.8374 6.37078C11.9468 6.48017 12.0951 6.54163 12.2498 6.54163C12.4046 6.54163 12.5529 6.48017 12.6623 6.37078C12.7717 6.26138 12.8332 6.11301 12.8332 5.9583V3.95163C12.833 3.84827 12.8054 3.74681 12.7531 3.65763C12.7008 3.56846 12.6258 3.49478 12.5357 3.44413ZM9.33318 7.7083C9.33318 7.86301 9.27172 8.01138 9.16233 8.12078C9.05293 8.23017 8.90456 8.29163 8.74985 8.29163H4.08318C3.92847 8.29163 3.7801 8.23017 3.6707 8.12078C3.56131 8.01138 3.49985 7.86301 3.49985 7.7083V5.5908L6.13068 7.04913L6.21818 7.08413H6.27068C6.3191 7.09023 6.36809 7.09023 6.41651 7.08413C6.46493 7.09023 6.51393 7.09023 6.56235 7.08413H6.61485C6.64582 7.0776 6.67542 7.06576 6.70235 7.04913L9.33318 5.5908V7.7083ZM6.41651 5.87663L2.36818 3.62496L6.41651 1.3733L10.4648 3.62496L6.41651 5.87663Z" fill="#0055A3"/>
</svg>
