<svg width="14" height="15" viewBox="0 0 14 15" fill="none" xmlns="http://www.w3.org/2000/svg">
<path d="M5.2517 1.81079C4.53218 1.81079 3.93671 2.40628 3.93671 3.12579V3.56155H1.75103C1.03126 3.56155 0.439453 4.15593 0.439453 4.87569V5.75065C0.439453 6.2476 0.720495 6.70147 1.16317 6.92295C1.2125 6.94763 1.26166 6.97261 1.31099 6.99729V11.8736C1.31099 12.5931 1.90647 13.1886 2.62598 13.1886H11.3738C12.0933 13.1886 12.6888 12.5931 12.6888 11.8736V6.99729C12.7384 6.9725 12.7879 6.94774 12.8375 6.92295C13.2802 6.7015 13.5604 6.2476 13.5604 5.75065V4.87569C13.5604 4.15593 12.9694 3.56155 12.2496 3.56155H10.0631V3.12579C10.0631 2.40628 9.46848 1.81079 8.74896 1.81079H5.2517ZM5.2517 2.68575H8.74896C8.9989 2.68575 9.18814 2.87585 9.18814 3.12579V3.56155H4.81166V3.12579C4.81166 2.87585 5.00176 2.68575 5.2517 2.68575ZM1.75103 4.43651H12.2496C12.4966 4.43651 12.6888 4.62872 12.6888 4.87569V5.75065C12.6888 5.91609 12.5932 6.06713 12.4436 6.14199C10.6944 7.01713 8.94476 7.89128 7.19557 8.76685C7.07126 8.82902 6.92855 8.82902 6.80423 8.76685C5.05504 7.89128 3.30629 7.01713 1.55707 6.14199C1.40737 6.06709 1.31099 5.91609 1.31099 5.75065V4.87569C1.31099 4.62872 1.50406 4.43651 1.75103 4.43651ZM6.9999 7.06223C6.75829 7.06223 6.56243 7.25808 6.56243 7.4997C6.56242 7.74131 6.75829 7.93718 6.9999 7.93718C7.24152 7.93718 7.43739 7.74131 7.43738 7.4997C7.43738 7.25808 7.24151 7.06223 6.9999 7.06223ZM2.1868 7.43477C3.59494 8.13917 5.00249 8.84396 6.41033 9.54867C6.78019 9.73381 7.21962 9.73381 7.58947 9.54867C8.99736 8.84394 10.4057 8.13919 11.8139 7.43477V11.8736C11.8139 12.1235 11.6237 12.3128 11.3738 12.3128H2.62598C2.37608 12.3128 2.1868 12.1235 2.1868 11.8736V7.43477Z" fill="#A36200"/>
</svg>
